<?xml version="1.0" encoding="UTF-8"?>
<svg version="1.1" xmlns="http://www.w3.org/2000/svg" width="72" height="72">
<path d="M0 0 C1.46021611 0.88003008 2.90215377 1.79208167 4.3125 2.75 C5.67375 3.5853125 5.67375 3.5853125 7.0625 4.4375 C14.185239 11.75809286 16.62796377 19.53339098 16.70410156 29.48168945 C16.58622901 35.86046325 14.91138135 40.45135544 11.3125 45.75 C10.755625 46.6575 10.19875 47.565 9.625 48.5 C2.30440714 55.622739 -5.47089098 58.06546377 -15.41918945 58.14160156 C-21.79796325 58.02372901 -26.38885544 56.34888135 -31.6875 52.75 C-32.595 52.193125 -33.5025 51.63625 -34.4375 51.0625 C-41.560239 43.74190714 -44.00296377 35.96660902 -44.07910156 26.01831055 C-43.96122901 19.63953675 -42.28638135 15.04864456 -38.6875 9.75 C-38.130625 8.8425 -37.57375 7.935 -37 7 C-27.41092884 -2.32990707 -12.34699777 -6.08024362 0 0 Z M-31.6875 11.75 C-36.15202887 17.74332535 -38.12766136 23.5414239 -37.5 30.96875 C-36.36506745 37.872923 -33.20200585 43.13198547 -27.57421875 47.32421875 C-21.17385497 51.18212369 -15.54728106 52.39732702 -8.1875 51.1875 C-1.26698895 49.37384883 3.57531103 45.47140376 7.25 39.375 C10.47675631 32.85608015 11.00225481 27.02834072 9.15625 19.984375 C6.58093991 13.16457235 2.06206629 8.85409134 -4.3984375 5.65625 C-14.29209511 1.73930706 -24.2806631 4.1817941 -31.6875 11.75 Z " fill="#131313" transform="translate(49.6875,8.25)"/>
<path d="M0 0 C1.04414062 0.42152344 1.04414062 0.42152344 2.109375 0.8515625 C1.64988498 6.21227936 0.46261894 6.49831856 -3.890625 10.8515625 C1.719375 11.1815625 7.329375 11.5115625 13.109375 11.8515625 C13.439375 13.5015625 13.769375 15.1515625 14.109375 16.8515625 C11.99011896 18.97081854 7.4897657 18.26987267 4.546875 18.4140625 C3.74056641 18.45724609 2.93425781 18.50042969 2.10351562 18.54492188 C0.10568695 18.65131512 -1.8924457 18.75197138 -3.890625 18.8515625 C-3.4560498 19.25133301 -3.02147461 19.65110352 -2.57373047 20.06298828 C-2.01572754 20.5939209 -1.45772461 21.12485352 -0.8828125 21.671875 C-0.3244873 22.19539551 0.23383789 22.71891602 0.80908203 23.25830078 C2.109375 24.8515625 2.109375 24.8515625 1.984375 27.7265625 C1.695625 28.4278125 1.406875 29.1290625 1.109375 29.8515625 C-4.17753729 29.49779142 -6.72673542 26.68308931 -10.265625 23.1015625 C-10.82378906 22.575625 -11.38195312 22.0496875 -11.95703125 21.5078125 C-15.82292142 17.65146774 -15.82292142 17.65146774 -16.1015625 14.359375 C-14.36697962 10.7671098 -11.96017062 8.2625421 -9.140625 5.4765625 C-8.6146875 4.91839844 -8.08875 4.36023438 -7.546875 3.78515625 C-3.58730662 -0.18421304 -3.58730662 -0.18421304 0 0 Z " fill="#131313" transform="translate(36.890625,21.1484375)"/>
</svg>
